<svg width="86" height="86" viewBox="0 0 86 86" fill="none" xmlns="http://www.w3.org/2000/svg">
<path d="M64.5122 78.7V7.3C66.4244 7.3 67.9268 7.8075 69.0195 8.8225C70.1122 9.8375 70.6585 11.43 70.6585 13.6V72.4C70.6585 74.57 70.1122 76.1625 69.0195 77.1775C67.9268 78.1925 66.4244 78.7 64.5122 78.7ZM7.14634 85C5.43902 85 3.9878 84.3875 2.79268 83.1625C1.59756 81.9375 1 80.45 1 78.7V7.3C1 5.55 1.59756 4.0625 2.79268 2.8375C3.9878 1.6125 5.43902 1 7.14634 1H48.1219C49.8293 1 51.2805 1.6125 52.4756 2.8375C53.6707 4.0625 54.2683 5.55 54.2683 7.3V78.7C54.2683 80.45 53.6707 81.9375 52.4756 83.1625C51.2805 84.3875 49.8293 85 48.1219 85H7.14634ZM80.9024 72.295V13.81C82.2683 13.81 83.2927 14.1075 83.9756 14.7025C84.6585 15.2975 85 16.4 85 18.01V68.095C85 69.705 84.6585 70.8075 83.9756 71.4025C83.2927 71.9975 82.2683 72.295 80.9024 72.295ZM7.14634 78.7H48.1219V7.3H7.14634V78.7ZM7.14634 7.3V78.7V7.3Z" fill="#DFDFDF"/>
</svg>
